<svg width="213" height="40" viewBox="0 0 213 40" fill="none" xmlns="http://www.w3.org/2000/svg">
<path d="M42 40H36.5921L25.4407 26.5059H22.5112V40H0V13.2935L21 0L42 13.2935V40ZM37.4029 38.4183H40.3325V14.1397L21 1.90203L1.66749 14.1397V38.4183H20.8437V24.9241H26.2516L37.4029 38.4183Z" fill="white"/>
<path d="M23.7522 23.4976C24.5039 23.4976 25.1133 22.9196 25.1133 22.2065C25.1133 21.4935 24.5039 20.9154 23.7522 20.9154C23.0005 20.9154 22.3911 21.4935 22.3911 22.2065C22.3911 22.9196 23.0005 23.4976 23.7522 23.4976Z" fill="#DAA36F"/>
<path d="M20.2088 19.9595C20.0358 19.9595 19.8607 19.9081 19.7117 19.8033C19.3428 19.5423 19.2667 19.047 19.5418 18.6961C20.5288 17.4406 22.1035 16.6902 23.7543 16.6902C25.4051 16.6902 26.9778 17.4396 27.9647 18.6951C28.2399 19.045 28.1638 19.5403 27.7949 19.8023C27.4259 20.0633 26.9038 19.9911 26.6276 19.6411C25.9439 18.7712 24.8955 18.273 23.7533 18.273C22.611 18.273 21.5616 18.7722 20.8789 19.6421C20.7153 19.8507 20.4641 19.9605 20.2098 19.9605L20.2088 19.9595Z" fill="#DAA36F"/>
<path d="M29.1832 17.4504C28.9445 17.4504 28.7069 17.3535 28.5422 17.1657C27.3542 15.8133 25.6085 15.0373 23.7534 15.0373C21.8983 15.0373 20.1516 15.8133 18.9625 17.1657C18.6676 17.5008 18.1423 17.5463 17.788 17.2665C17.4347 16.9867 17.3867 16.4885 17.6817 16.1524C19.1887 14.4382 21.4012 13.4545 23.7524 13.4545C26.1035 13.4545 28.3171 14.4382 29.8231 16.1524C30.118 16.4885 30.0701 16.9867 29.7157 17.2665C29.5594 17.3901 29.3708 17.4494 29.1822 17.4494L29.1832 17.4504Z" fill="#DAA36F"/>
<path d="M31.8628 15.6275C31.6325 15.6275 31.4043 15.5375 31.2396 15.3616C29.3407 13.334 26.6113 12.1714 23.7536 12.1714C20.8959 12.1714 18.1654 13.334 16.2666 15.3616C15.9612 15.6878 15.4338 15.7175 15.0899 15.4278C14.746 15.1382 14.7147 14.6379 15.0201 14.3117C17.2358 11.947 20.4186 10.5897 23.7536 10.5897C27.0886 10.5897 30.2704 11.946 32.4861 14.3117C32.7914 14.6379 32.7612 15.1382 32.4162 15.4278C32.2578 15.5613 32.0598 15.6275 31.8628 15.6275Z" fill="#DAA36F"/>
<path d="M72.0242 39.4163H67.4801L54.9171 20.2023C54.4531 19.4954 54.1148 18.8848 53.9001 18.3683H53.7982C53.9001 19.0409 53.9505 20.3094 53.9505 22.1709V39.4163H50V13.3542H54.8152L67.0052 32.1981C67.582 33.0955 67.9659 33.7179 68.1578 34.0655H68.2429C68.1182 33.2575 68.0569 32.0125 68.0569 30.3307V13.3542H72.0242V39.4163Z" fill="#DAA36F"/>
<path d="M76.9233 30.2806C76.9233 27.2183 77.8019 24.8011 79.56 23.029C81.3171 21.2568 83.7114 20.3702 86.7398 20.3702C89.5991 20.3702 91.8598 21.2283 93.5219 22.9445C95.183 24.6607 96.0141 27.0053 96.0141 29.9772C96.0141 32.9492 95.1385 35.3674 93.3864 37.1611C91.6342 38.9559 89.2943 39.8532 86.3668 39.8532C83.4393 39.8532 81.2043 38.9843 79.4917 37.2456C77.7791 35.5068 76.9233 33.1848 76.9233 30.2796V30.2806ZM80.9758 30.1962C80.9758 32.2383 81.4764 33.8308 82.4766 34.9746C83.4769 36.1184 84.8363 36.6908 86.5538 36.6908C90.1591 36.6908 91.9627 34.4867 91.9627 30.0784C91.9627 27.9478 91.4987 26.3239 90.5726 25.2076C89.6456 24.0913 88.306 23.5336 86.5548 23.5336C84.8036 23.5336 83.4353 24.1286 82.4519 25.3176C81.4685 26.5065 80.9768 28.1334 80.9768 30.1972L80.9758 30.1962Z" fill="#DAA36F"/>
<path d="M116.292 20.8081L108.985 39.4163H104.763L97.812 20.8081H102.136L106.357 33.6119C106.718 34.7115 106.939 35.659 107.018 36.4552H107.103C107.205 35.5353 107.408 34.6153 107.714 33.6963L112.104 20.8081H116.292Z" fill="#DAA36F"/>
<path d="M119.005 22.0531C120.916 20.9318 123.125 20.3702 125.634 20.3702C130.37 20.3702 132.738 22.7992 132.738 27.6553V39.4163H128.872V36.5897H128.787C127.51 38.7664 125.611 39.8542 123.09 39.8542C121.248 39.8542 119.799 39.3604 118.741 38.3737C117.685 37.3869 117.156 36.0576 117.156 34.3865C117.156 30.8874 119.253 28.8452 123.447 28.262L128.889 27.5217C128.889 24.7511 127.662 23.3657 125.21 23.3657C122.96 23.3657 120.892 24.0893 119.004 25.5365V22.054L119.005 22.0531ZM124.753 30.7686C123.396 30.9482 122.438 31.2899 121.878 31.7946C121.319 32.2992 121.04 33.0395 121.04 34.0154C121.04 34.8342 121.339 35.5048 121.938 36.0262C122.536 36.5475 123.305 36.8087 124.244 36.8087C125.578 36.8087 126.686 36.3403 127.567 35.4037C128.449 34.467 128.89 33.2869 128.89 31.8623V30.2138L124.754 30.7696L124.753 30.7686Z" fill="#DAA36F"/>
<path d="M160.855 39.4163H156.311L143.748 20.2023C143.284 19.4954 142.946 18.8848 142.731 18.3683H142.629C142.731 19.0409 142.782 20.3094 142.782 22.1709V39.4163H138.831V13.3542H143.646L155.836 32.1981C156.413 33.0955 156.797 33.7179 156.989 34.0655H157.074C156.949 33.2575 156.888 32.0125 156.888 30.3307V13.3542H160.855V39.4163Z" fill="white"/>
<path d="M182.659 31.1721H169.773C169.942 34.9295 171.87 36.8087 175.555 36.8087C177.635 36.8087 179.528 36.1921 181.235 34.9579V38.2225C179.562 39.3103 177.364 39.8542 174.64 39.8542C171.916 39.8542 169.683 39.0128 168.112 37.33C166.541 35.6472 165.755 33.2918 165.755 30.2639C165.755 27.3921 166.6 25.026 168.29 23.1635C169.98 21.302 172.096 20.3702 174.64 20.3702C177.184 20.3702 179.141 21.1635 180.548 22.7511C181.955 24.3387 182.66 26.5232 182.66 29.3047V31.1721H182.659ZM178.792 28.2954C178.78 26.7029 178.413 25.4805 177.69 24.6274C176.967 23.7751 175.938 23.349 174.604 23.349C173.394 23.349 172.344 23.8007 171.451 24.7039C170.558 25.6072 170.004 26.804 169.79 28.2964H178.793L178.792 28.2954Z" fill="white"/>
<path d="M185.931 35.0925C187.683 36.2706 189.502 36.8587 191.39 36.8587C193.876 36.8587 195.12 36.0959 195.12 34.5701C195.12 33.931 194.86 33.4067 194.34 32.9973C193.82 32.5879 192.65 32.0469 190.831 31.3734C188.921 30.6439 187.632 29.8673 186.966 29.0435C186.299 28.2188 185.965 27.184 185.965 25.9391C185.965 24.2229 186.689 22.866 188.135 21.8675C189.581 20.869 191.373 20.3702 193.509 20.3702C195.148 20.3702 196.68 20.6392 198.104 21.1783V24.6774C196.68 23.8026 195.086 23.3647 193.322 23.3647C192.316 23.3647 191.502 23.5729 190.88 23.9872C190.258 24.4025 189.948 24.9464 189.948 25.619C189.948 26.2915 190.176 26.8021 190.634 27.184C191.092 27.5649 192.146 28.0706 193.796 28.6979C195.83 29.4382 197.218 30.2266 197.958 31.0621C198.698 31.8976 199.068 32.9384 199.068 34.1833C199.068 35.9447 198.345 37.33 196.898 38.3393C195.45 39.3486 193.552 39.8532 191.201 39.8532C189.189 39.8532 187.432 39.5057 185.928 38.8106V35.0925H185.931Z" fill="white"/>
<path d="M212.838 39.2151C212.103 39.6304 211.046 39.8375 209.667 39.8375C206.106 39.8375 204.326 37.9191 204.326 34.0832V23.9381H201.155V20.8081H204.326V16.4509L208.294 15.256V20.8081H212.838V23.9381H208.294V33.3939C208.294 34.5495 208.499 35.385 208.912 35.9005C209.324 36.4169 209.988 36.6742 210.904 36.6742C211.617 36.6742 212.261 36.4719 212.838 36.0684V39.2151Z" fill="white"/>
</svg>
