<?xml version="1.0" encoding="UTF-8"?>
<svg id="_圖層_1" data-name="圖層_1" xmlns="http://www.w3.org/2000/svg" version="1.1" viewBox="0 0 1357.5 655.5">
  <!-- Generator: Adobe Illustrator 29.2.1, SVG Export Plug-In . SVG Version: 2.1.0 Build 116)  -->
  <path d="M1302,627c-6.6.7-13-1.8-20.1-3.3-7.5-1.6-15-3.1-22.6-4.6-31.5-6.3-63.1-12.1-94.8-17.4-33.9-5.7-67.9-10.7-102-15.2-36.2-4.7-72.5-8.8-108.8-12.2-38.4-3.6-76.8-6.4-115.3-8.5-40.5-2.2-81-3.6-121.5-4.1-12.8-.2-25.5-.3-38.2-.3s-27.8.1-41.8.3c-13.9.2-27.4.5-41.1.9-13.5.4-27,.9-40.4,1.4-13.3.6-26.5,1.2-39.8,1.9-13.2.7-26.1,1.5-39.1,2.4-12.8.9-25.6,1.8-38.4,2.9-12.6,1-25.1,2.1-37.7,3.3-12.3,1.2-24.6,2.4-36.9,3.7-12.3,1.3-24.1,2.7-36.2,4.1-12.1,1.4-23.6,2.9-35.5,4.5-11.8,1.6-23.1,3.1-34.7,4.8-11.3,1.6-22.6,3.3-33.9,5.1-11.1,1.7-22.1,3.5-33.1,5.4-10.8,1.8-21.6,3.7-32.4,5.6-10.5,1.9-21,3.8-31.5,5.8-10.5,2-20.5,4-30.7,6-6.8,1.4-13.7,2.8-20.5,4.2-6.6,1.4-13.2,3.1-19.9,3.8-2,.2-4.1,0-6.1-.8-4.2-1.7-7.7-4.9-10.1-8.6-3.5-5.3-5.2-11.7-5.2-18.1V55.5c0-15.4,9.7-28,21.6-28,216.5,48.7,415.6,84.4,623.4,84.4s421.4-37.8,623.4-84.4c11.9,0,21.6,12.6,21.6,28v544.4c0,9.4-4.9,18.7-12.8,23.8-3,2-6,2.9-8.9,3.2h0Z"/>
</svg>