<svg width="163" height="27" viewBox="0 0 163 27" fill="none" xmlns="http://www.w3.org/2000/svg">
<mask id="mask0_248_588" style="mask-type:alpha" maskUnits="userSpaceOnUse" x="0" y="0" width="163" height="27">
<rect width="163" height="27" fill="#D9D9D9"/>
</mask>
<g mask="url(#mask0_248_588)">
<path d="M22.0242 26.4164H17.4801L4.91714 7.20235C4.45313 6.49545 4.11477 5.88476 3.90008 5.36833H3.79817C3.90007 6.04087 3.95053 7.30937 3.95053 9.17088V26.4164H0V0.354233H4.81524L17.0052 19.1981C17.582 20.0955 17.9659 20.7179 18.1578 21.0655H18.2429C18.1182 20.2575 18.0569 19.0125 18.0569 17.3307V0.354233H22.0242V26.4164Z" fill="#DAA36F"/>
<path d="M26.9236 17.2806C26.9236 14.2183 27.8021 11.8011 29.5602 10.029C31.3173 8.2568 33.7116 7.37022 36.7401 7.37022C39.5993 7.37022 41.86 8.22833 43.5221 9.94453C45.1833 11.6607 46.0144 14.0053 46.0144 16.9772C46.0144 19.9492 45.1388 22.3674 43.3866 24.1611C41.6344 25.9559 39.2946 26.8532 36.3671 26.8532C33.4395 26.8532 31.2046 25.9843 29.492 24.2456C27.7794 22.5068 26.9236 20.1848 26.9236 17.2796V17.2806ZM30.976 17.1962C30.976 19.2383 31.4766 20.8308 32.4769 21.9746C33.4771 23.1184 34.8365 23.6908 36.5541 23.6908C40.1593 23.6908 41.9629 21.4867 41.9629 17.0783C41.9629 14.9478 41.4989 13.3239 40.5729 12.2076C39.6458 11.0913 38.3062 10.5336 36.555 10.5336C34.8039 10.5336 33.4356 11.1286 32.4521 12.3176C31.4687 13.5065 30.977 15.1334 30.977 17.1971L30.976 17.1962Z" fill="#DAA36F"/>
<path d="M66.2924 7.80812L58.9849 26.4163H54.7633L47.812 7.80812H52.1355L56.3572 20.6119C56.7183 21.7115 56.9389 22.659 57.0181 23.4552H57.1031C57.205 22.5353 57.4079 21.6153 57.7136 20.6963L62.1044 7.80812H66.2924Z" fill="#DAA36F"/>
<path d="M69.0051 9.05304C70.9156 7.93182 73.1248 7.37022 75.6339 7.37022C80.37 7.37022 82.7375 9.79922 82.7375 14.6552V26.4163H78.8721V23.5897H78.787C77.5097 25.7664 75.6111 26.8542 73.0902 26.8542C71.248 26.8542 69.7986 26.3604 68.741 25.3737C67.6843 24.3869 67.156 23.0576 67.156 21.3865C67.156 17.8874 69.2525 15.8452 73.4464 15.262L78.8889 14.5217C78.8889 11.7511 77.6621 10.3657 75.2094 10.3657C72.9596 10.3657 70.8919 11.0893 69.0041 12.5365V9.05403L69.0051 9.05304ZM74.7523 17.7686C73.3959 17.9482 72.4382 18.2899 71.8782 18.7946C71.3192 19.2992 71.0393 20.0395 71.0393 21.0154C71.0393 21.8342 71.339 22.5048 71.9376 23.0261C72.5362 23.5475 73.3049 23.8087 74.2438 23.8087C75.5775 23.8087 76.6856 23.3403 77.5671 22.4037C78.4486 21.467 78.8899 20.2869 78.8899 18.8623V17.2138L74.7533 17.7695L74.7523 17.7686Z" fill="#DAA36F"/>
<path d="M110.855 26.4164H106.311L93.7482 7.20235C93.2842 6.49545 92.9458 5.88476 92.7311 5.36833H92.6292C92.7311 6.04087 92.7816 7.30937 92.7816 9.17088V26.4164H88.8311V0.354233H93.6463L105.836 19.1981C106.413 20.0955 106.797 20.7179 106.989 21.0655H107.074C106.949 20.2575 106.888 19.0125 106.888 17.3307V0.354233H110.855V26.4164Z" fill="white"/>
<path d="M132.659 18.1721H119.773C119.943 21.9295 121.87 23.8087 125.555 23.8087C127.635 23.8087 129.529 23.1921 131.235 21.958V25.2225C129.562 26.3103 127.364 26.8542 124.64 26.8542C121.916 26.8542 119.683 26.0128 118.112 24.33C116.541 22.6472 115.756 20.2918 115.756 17.2639C115.756 14.3921 116.601 12.026 118.29 10.1635C119.98 8.30198 122.096 7.37024 124.64 7.37024C127.184 7.37024 129.142 8.16354 130.549 9.75113C131.955 11.3387 132.66 13.5232 132.66 16.3047V18.1721H132.659ZM128.792 15.2954C128.781 13.7029 128.414 12.4806 127.69 11.6274C126.967 10.7752 125.938 10.349 124.604 10.349C123.395 10.349 122.344 10.8007 121.451 11.7039C120.558 12.6072 120.004 13.804 119.79 15.2964H128.793L128.792 15.2954Z" fill="white"/>
<path d="M135.931 22.0925C137.683 23.2706 139.502 23.8587 141.39 23.8587C143.876 23.8587 145.12 23.0959 145.12 21.5701C145.12 20.931 144.86 20.4067 144.34 19.9973C143.82 19.5879 142.65 19.0469 140.831 18.3734C138.921 17.6439 137.632 16.8673 136.966 16.0435C136.299 15.2188 135.965 14.184 135.965 12.9391C135.965 11.2229 136.689 9.866 138.135 8.8675C139.581 7.869 141.373 7.37024 143.509 7.37024C145.148 7.37024 146.68 7.63925 148.104 8.17827V11.6774C146.68 10.8026 145.086 10.3648 143.322 10.3648C142.316 10.3648 141.502 10.5729 140.88 10.9872C140.258 11.4025 139.948 11.9465 139.948 12.619C139.948 13.2915 140.176 13.8021 140.634 14.184C141.092 14.5649 142.146 15.0706 143.796 15.6979C145.83 16.4382 147.218 17.2266 147.958 18.0621C148.698 18.8977 149.068 19.9384 149.068 21.1833C149.068 22.9447 148.345 24.33 146.898 25.3393C145.45 26.3486 143.552 26.8533 141.201 26.8533C139.189 26.8533 137.432 26.5057 135.928 25.8106V22.0925H135.931Z" fill="white"/>
<path d="M162.837 26.2151C162.102 26.6304 161.046 26.8375 159.667 26.8375C156.106 26.8375 154.326 24.9191 154.326 21.0832V10.9381H151.155V7.80813H154.326V3.45086L158.293 2.256V7.80813H162.837V10.9381H158.293V20.3939C158.293 21.5495 158.499 22.385 158.912 22.9005C159.324 23.4169 159.988 23.6742 160.904 23.6742C161.617 23.6742 162.261 23.4719 162.837 23.0684V26.2151Z" fill="white"/>
</g>
</svg>
