<svg width="42" height="40" viewBox="0 0 42 40" fill="none" xmlns="http://www.w3.org/2000/svg">
<mask id="mask0_248_587" style="mask-type:alpha" maskUnits="userSpaceOnUse" x="0" y="0" width="42" height="40">
<rect width="42" height="40" fill="#D9D9D9"/>
</mask>
<g mask="url(#mask0_248_587)">
<path d="M42 40H36.5921L25.4407 26.5059H22.5112V40H0V13.2935L21 0L42 13.2935V40ZM37.4029 38.4183H40.3325V14.1397L21 1.90203L1.66749 14.1397V38.4183H20.8437V24.9241H26.2516L37.4029 38.4183Z" fill="white"/>
<path d="M23.7524 23.4976C24.5042 23.4976 25.1135 22.9196 25.1135 22.2065C25.1135 21.4935 24.5042 20.9154 23.7524 20.9154C23.0007 20.9154 22.3914 21.4935 22.3914 22.2065C22.3914 22.9196 23.0007 23.4976 23.7524 23.4976Z" fill="#DAA36F"/>
<path d="M20.2089 19.9595C20.0359 19.9595 19.8608 19.9081 19.7118 19.8033C19.3429 19.5423 19.2668 19.047 19.5419 18.6961C20.5289 17.4406 22.1036 16.6902 23.7544 16.6902C25.4053 16.6902 26.9779 17.4396 27.9649 18.6951C28.24 19.045 28.1639 19.5403 27.795 19.8023C27.4261 20.0633 26.9039 19.9911 26.6277 19.6411C25.9441 18.7712 24.8956 18.273 23.7534 18.273C22.6112 18.273 21.5617 18.7722 20.8791 19.6421C20.7154 19.8507 20.4643 19.9605 20.21 19.9605L20.2089 19.9595Z" fill="#DAA36F"/>
<path d="M29.1832 17.4504C28.9445 17.4504 28.7069 17.3535 28.5422 17.1657C27.3542 15.8133 25.6085 15.0373 23.7534 15.0373C21.8983 15.0373 20.1516 15.8133 18.9625 17.1657C18.6676 17.5008 18.1423 17.5463 17.788 17.2665C17.4347 16.9867 17.3867 16.4885 17.6817 16.1524C19.1887 14.4382 21.4012 13.4545 23.7524 13.4545C26.1035 13.4545 28.3171 14.4382 29.8231 16.1524C30.118 16.4885 30.0701 16.9867 29.7157 17.2665C29.5594 17.3901 29.3708 17.4494 29.1822 17.4494L29.1832 17.4504Z" fill="#DAA36F"/>
<path d="M31.8627 15.6275C31.6324 15.6275 31.4041 15.5375 31.2395 15.3616C29.3406 13.334 26.6111 12.1714 23.7535 12.1714C20.8958 12.1714 18.1653 13.334 16.2664 15.3616C15.9611 15.6878 15.4337 15.7175 15.0898 15.4278C14.7459 15.1382 14.7146 14.6379 15.02 14.3117C17.2357 11.947 20.4185 10.5897 23.7535 10.5897C27.0885 10.5897 30.2702 11.946 32.4859 14.3117C32.7913 14.6379 32.7611 15.1382 32.4161 15.4278C32.2577 15.5613 32.0597 15.6275 31.8627 15.6275Z" fill="#DAA36F"/>
</g>
</svg>
